<svg xmlns="http://www.w3.org/2000/svg" xmlns:xlink="http://www.w3.org/1999/xlink" width="28" height="17" viewBox="0 0 28 17">
  <defs>
    <clipPath id="clip-path">
      <rect id="Rectangle_42" data-name="Rectangle 42" width="28" height="17" rx="3" transform="translate(637 373)" fill="#f10303"/>
    </clipPath>
  </defs>
  <g id="India" transform="translate(-637 -373)" clip-path="url(#clip-path)">
    <g id="india-2" data-name="india" transform="translate(638.026 368.526)">
      <path id="Path_1" data-name="Path 1" d="M24,4.474H1.943A1.943,1.943,0,0,0,0,6.417V10.14H25.947V6.417A1.943,1.943,0,0,0,24,4.474Z" fill="#fab446"/>
      <path id="Path_2" data-name="Path 2" d="M0,19.53a1.943,1.943,0,0,0,1.943,1.943H24a1.943,1.943,0,0,0,1.943-1.943V15.807H0Z" fill="#73af00"/>
      <rect id="Rectangle_45" data-name="Rectangle 45" width="25.947" height="5.666" transform="translate(0 10.14)" fill="#f5f5f5"/>
      <g id="Group_1" data-name="Group 1">
        <path id="Path_3" data-name="Path 3" d="M12.974,15.378a2.4,2.4,0,1,1,2.4-2.4A2.407,2.407,0,0,1,12.974,15.378Zm0-4.362a1.957,1.957,0,1,0,1.957,1.957A1.959,1.959,0,0,0,12.974,11.016Z" fill="#41479b"/>
        <circle id="Ellipse_1" data-name="Ellipse 1" cx="0.273" cy="0.273" r="0.273" transform="translate(12.701 12.701)" fill="#41479b"/>
        <path id="Path_4" data-name="Path 4" d="M12.974,13.015l-.693.07-1.488-.07v-.082l1.488-.07.693.07Z" fill="#41479b"/>
        <path id="Path_5" data-name="Path 5" d="M12.974,13.015l.693.07,1.488-.07v-.082l-1.488-.07-.693.07Z" fill="#41479b"/>
        <path id="Path_6" data-name="Path 6" d="M12.933,12.974l-.07-.693.07-1.488h.082l.07,1.488-.07.693Z" fill="#41479b"/>
        <path id="Path_7" data-name="Path 7" d="M12.933,12.974l-.07.693.07,1.488h.082l.07-1.488-.07-.693Z" fill="#41479b"/>
        <path id="Path_8" data-name="Path 8" d="M12.945,13l-.539-.44-1-1.1.058-.058,1.1,1,.44.539Z" fill="#41479b"/>
        <path id="Path_9" data-name="Path 9" d="M12.945,13l.44.539,1.1,1,.058-.058-1-1.1L13,12.945Z" fill="#41479b"/>
        <path id="Path_10" data-name="Path 10" d="M12.945,12.945l.44-.539,1.1-1,.058.058-1,1.1L13,13Z" fill="#41479b"/>
        <path id="Path_11" data-name="Path 11" d="M12.945,12.945l-.539.44-1,1.1.058.058,1.1-1L13,13Z" fill="#41479b"/>
        <path id="Path_12" data-name="Path 12" d="M12.989,13.012l-.613.33-1.4.5-.031-.076,1.348-.634.667-.2Z" fill="#41479b"/>
        <path id="Path_13" data-name="Path 13" d="M12.989,13.012l.667-.2L15,12.177l-.031-.076-1.4.5-.613.33Z" fill="#41479b"/>
        <path id="Path_14" data-name="Path 14" d="M12.936,12.989l-.33-.613-.5-1.4.076-.031.634,1.348.2.667Z" fill="#41479b"/>
        <path id="Path_15" data-name="Path 15" d="M12.936,12.989l.2.667L13.771,15l.076-.031-.5-1.4-.33-.613Z" fill="#41479b"/>
        <path id="Path_16" data-name="Path 16" d="M12.958,13.012l-.667-.2-1.348-.634.031-.076,1.4.5.613.33Z" fill="#41479b"/>
        <path id="Path_17" data-name="Path 17" d="M12.958,13.012l.613.33,1.4.5L15,13.771l-1.348-.634-.667-.2Z" fill="#41479b"/>
        <path id="Path_18" data-name="Path 18" d="M12.936,12.958l.2-.667.634-1.348.076.031-.5,1.4-.33.613Z" fill="#41479b"/>
        <path id="Path_19" data-name="Path 19" d="M12.936,12.958l-.33.613-.5,1.4.076.031.634-1.348.2-.667Z" fill="#41479b"/>
      </g>
      <circle id="Ellipse_2" data-name="Ellipse 2" cx="0.368" cy="0.368" r="0.368" transform="translate(12.606 12.606)" fill="#f5f5f5"/>
      <circle id="Ellipse_3" data-name="Ellipse 3" cx="0.221" cy="0.221" r="0.221" transform="translate(12.753 12.753)" fill="#41479b"/>
    </g>
  </g>
</svg>
